<?xml version="1.0" encoding="UTF-8"?>
<!DOCTYPE svg PUBLIC "-//W3C//DTD SVG 1.1//EN" "http://www.w3.org/Graphics/SVG/1.1/DTD/svg11.dtd">
<!-- Creator: CorelDRAW -->
<svg xmlns="http://www.w3.org/2000/svg" xml:space="preserve" width="210mm" height="297mm" style="shape-rendering:geometricPrecision; text-rendering:geometricPrecision; image-rendering:optimizeQuality; fill-rule:evenodd; clip-rule:evenodd"
viewBox="0 0 210 297"
 xmlns:xlink="http://www.w3.org/1999/xlink">
 <defs>
  <style type="text/css">
   <![CDATA[
    .str0 {stroke:black;stroke-width:0.5926;stroke-linecap:round}
    .fil0 {fill:none}
   ]]>
  </style>
 </defs>
 <g id="Слой_x0020_1">
  <metadata id="CorelCorpID_0Corel-Layer"/>
  <path class="fil0 str0" d="M117.65 145.317c0,-0.7856 -0.7151,-1.5007 -1.5007,-1.5007 -0.7853,0 -1.4993,0.7151 -1.4993,1.5007 0,0.7853 0.714,1.5004 1.4993,1.5004 0.7856,0 1.5007,-0.7151 1.5007,-1.5004z"/>
  <path class="fil0 str0" d="M117.65 55.7171c0,-0.7853 -0.7151,-1.5007 -1.5007,-1.5007 -0.7853,0 -1.4993,0.7155 -1.4993,1.5007 0,0.7857 0.714,1.5008 1.4993,1.5008 0.7856,-0.0001 1.5007,-0.7151 1.5007,-1.5008z"/>
  <path class="fil0 str0" d="M43.6879 124.517c0,-0.8379 -0.7606,-1.6013 -1.5998,-1.6013 -0.8379,0 -1.5999,0.7634 -1.5999,1.6013 0,0.8378 0.762,1.6012 1.5999,1.6012 0.8393,0 1.5998,-0.7634 1.5998,-1.6012z"/>
  <polygon class="fil0 str0" points="92.0129,74.5329 92.0129,58.5341 92.0129,58.5341 78.0136,58.5341 78.0136,58.5341 78.0136,74.5329 78.0136,74.5329 92.0129,74.5329 "/>
  <path class="fil0 str0" d="M163.588 84.5168c0,-0.7856 -0.714,-1.5006 -1.4993,-1.5006 -0.7856,-0.0001 -1.5007,0.715 -1.5007,1.5007 0,0.7852 0.715,1.5007 1.5007,1.5007 0.7853,0 1.4993,-0.7154 1.4993,-1.5008z"/>
  <path class="fil0 str0" d="M99.6501 145.317c0,-0.7856 -0.7154,-1.5007 -1.5007,-1.5007 -0.7856,0 -1.4993,0.7151 -1.4993,1.5007 0,0.7853 0.7137,1.5004 1.4993,1.5004 0.7853,0 1.5007,-0.7151 1.5007,-1.5004z"/>
  <path class="fil0 str0" d="M168.971 95.3122l-3.5581 -4.5942 0 0c-0.7443,-0.962 -1.9474,-1.5515 -3.1627,-1.5515 -1.2153,0 -2.4186,0.5895 -3.1627,1.5515l0.0001 0 -3.5582 4.5942 0 0c-1.1423,1.476 -1.779,3.3377 -1.779,5.2049 0,1.8659 0.6367,3.7278 1.779,5.2035l0 0 3.5582 4.5959 0 0c0.744,0.9603 1.9473,1.5502 3.1626,1.5502 1.2153,0 2.4183,-0.5899 3.1626,-1.5501l0.0001 -0.0001 3.5581 -4.5959 0 0c1.1437,-1.4757 1.779,-3.3376 1.779,-5.2035 0,-1.8673 -0.6353,-3.7289 -1.779,-5.2049l0 0z"/>
  <path class="fil0 str0" d="M129.485 27.5171l-45 0 0 0c-0.6544,0 -1.305,0.2685 -1.7678,0.7317 -0.4632,0.4628 -0.732,1.1134 -0.732,1.7681l0 0 0 17.9998 0 0c0,0.6544 0.2688,1.3049 0.732,1.7681 0.4629,0.4628 1.1134,0.7317 1.7678,0.7317l0 0 45 0 0 0c0.6544,0 1.3049,-0.2688 1.7681,-0.7317 0.4628,-0.4632 0.7316,-1.1137 0.7316,-1.7681l0 0 0 -17.9998 0 0c0,-0.6547 -0.2688,-1.3052 -0.7316,-1.7681 -0.4632,-0.4632 -1.1137,-0.7316 -1.7682,-0.7316l0.0001 -0.0001z"/>
  <path class="fil0 str0" d="M43.6879 76.5173c0,-0.8393 -0.7606,-1.6013 -1.5998,-1.6013 -0.8379,0 -1.5999,0.762 -1.5999,1.6013 0,0.8378 0.762,1.6012 1.5999,1.6012 0.8393,0 1.5998,-0.7634 1.5998,-1.6012z"/>
  <path class="fil0 str0" d="M84.4846 173.517l45 0 0 0c0.6544,0 1.3049,-0.2702 1.7681,-0.7331 0.4628,-0.4632 0.7316,-1.1133 0.7316,-1.7681l0 0 0 -17.9998 0 0c0,-0.6547 -0.2688,-1.3049 -0.7316,-1.7667 -0.4632,-0.4632 -1.1137,-0.733 -1.7682,-0.733l0.0001 -0.0001 -45 0 0 0c-0.6544,0 -1.305,0.2699 -1.7678,0.7331 -0.4632,0.4618 -0.732,1.112 -0.732,1.7667l0 0 0 17.9998 0 0c0,0.6548 0.2688,1.305 0.732,1.7681 0.4629,0.4629 1.1134,0.7331 1.7678,0.7331l0 0z"/>
  <path class="fil0 str0" d="M99.6501 55.7171c0,-0.7853 -0.7154,-1.5007 -1.5007,-1.5007 -0.7856,0 -1.4993,0.7155 -1.4993,1.5007 0,0.7857 0.7137,1.5008 1.4993,1.5008 0.7853,-0.0001 1.5007,-0.7151 1.5007,-1.5008z"/>
  <path class="fil0 str0" d="M141.955 29.5082c-1.4609,-2.1442 -3.4509,-3.9232 -5.744,-5.1357 -2.293,-1.2129 -4.8849,-1.8549 -7.4785,-1.8549l0 0 -44.4871 0 0 0c-1.5765,0 -3.1531,0.2342 -4.6619,0.6932l0 -0.0001c-13.2818,4.0443 -25.575,11.2971 -35.5382,20.9682 -9.9635,9.6696 -17.5796,21.7413 -22.0172,34.8974l0 0c-3.8294,6.4506 -5.8854,13.9404 -5.8854,21.4408 0,7.5007 2.056,14.9906 5.8854,21.4397l0 0c4.4376,13.1562 12.0537,25.2275 22.0172,34.8989 9.9632,9.6697 22.2564,16.9221 35.5382,20.9667l0 0c1.5088,0.4603 3.0854,0.6946 4.6619,0.6946l0 0 44.4871 0 0 0c2.5936,0 5.1855,-0.6435 7.4785,-1.8549 2.2931,-1.2125 4.2831,-2.993 5.7439,-5.1361l0.0001 0c12.518,-18.372 22.1643,-38.6951 28.4867,-60.0093l0.0001 0c2.4444,-3.1062 3.8089,-7.0474 3.8089,-10.9996 0,-3.9536 -1.3646,-7.8934 -3.809,-11.0007l0.0001 0c-6.3225,-21.3127 -15.9689,-41.6362 -28.4869,-60.0082l0.0001 0z"/>
  <path class="fil0 str0" d="M20.3672 105.721l3.5581 4.5959 0 0c0.7444,0.9603 1.9474,1.5502 3.1627,1.5502 1.2167,0 2.4186,-0.5899 3.1626,-1.5501l0 -0.0001 3.5581 -4.5959 0 0c1.1438,-1.4757 1.7805,-3.3376 1.7805,-5.2035 0,-1.8673 -0.6368,-3.7289 -1.7805,-5.2049l0 0 -3.5581 -4.5942 0 0c-0.744,-0.962 -1.9459,-1.5515 -3.1626,-1.5515 -1.2153,0 -2.4183,0.5895 -3.1627,1.5515l0 0 -3.5581 4.5942 0 0c-1.1423,1.476 -1.7791,3.3377 -1.7791,5.2049 0,1.8659 0.6368,3.7278 1.7791,5.2035l0 0z"/>
  <path class="fil0 str0" d="M163.588 116.516c0,-0.7856 -0.714,-1.5007 -1.4993,-1.5007 -0.7856,-0.0001 -1.5007,0.7151 -1.5007,1.5007 0,0.7867 0.715,1.5021 1.5007,1.5021 0.7853,0 1.4993,-0.7154 1.4993,-1.5021z"/>
 </g>
</svg>
